LG_Sit_Stand_Walk02																		
version=1																		
nRows=115																		
nColumns=19																		
inDegrees=yes																		
endheader																		
time	ground_force2_vx	ground_force2_vy	ground_force2_vz	ground_force2_px	ground_force2_py	ground_force2_pz	ground_torque2_x	ground_torque2_y	ground_torque2_z	ground_force1_vx	ground_force1_vy	ground_force1_vz	ground_force1_px	ground_force1_py	ground_force1_pz	ground_torque1_x	ground_torque1_y	ground_torque1_z
2.89	-1.332176	83.560783	-0.6952	0.207102	0	-0.314929	0.00E+00	0.703347	1.00E-06	0	0	0	-0.13	0	0.305	0	0	0
2.891	-2.034277	83.738586	-0.930431	0.207414	0	-0.321377	0.00E+00	0.774661	1.00E-06	0	0	0	-0.13	0	0.305	0	0	0
2.892	-2.034277	83.738586	-0.930431	0.207414	0	-0.320732	-1.00E-06	0.773356	1.00E-06	0	0	0	-0.13	0	0.305	0	0	0
2.893	-1.178638	83.738586	-0.930431	0.207048	0	-0.320732	-1.00E-06	0.801421	1.00E-06	0	0	0	-0.13	0	0.305	0	0	0
2.894	-1.178638	84.416687	-1.165464	0.206215	0	-0.320732	-1.00E-06	0.773356	0.00E+00	0	0	0	-0.13	0	0.305	0	0	0
2.895	-1.253603	84.416687	-1.165464	0.206215	0	-0.324011	1.00E-06	0.789278	1.00E-06	0	0	0	-0.13	0	0.305	0	0	0
2.896	-1.255768	84.416687	-1.165464	0.205364	0	-0.324011	1.00E-06	0.789278	1.00E-06	0	0	0	-0.13	0	0.305	0	0	0
2.897	-1.253603	83.556175	-1.557035	0.205266	0	-0.319426	1.00E-06	0.789278	1.00E-06	0	0	0	-0.13	0	0.305	0	0	0
2.898	-1.095013	83.556175	-1.557035	0.205364	0	-0.31796	1.00E-06	0.79112	1.00E-06	0	0	0	-0.13	0	0.305	0	0	0
2.899	-0.9422	83.556175	-1.556955	0.205611	0	-0.318486	2.00E-06	0.769613	1.00E-06	0	0	0	-0.13	0	0.305	0	0	0
2.9	-0.785055	82.185699	-1.400455	0.205611	0	-0.31796	1.00E-06	0.769613	1.00E-06	0	0	0	-0.13	0	0.305	0	0	0
2.901	-0.785055	81.838943	-1.008562	0.204947	0	-0.316729	1.00E-06	0.755	1.00E-06	0	0	0	-0.13	0	0.305	0	0	0
2.902	-0.47365	81.672333	-1.008562	0.204947	0	-0.315927	1.00E-06	0.755	1.00E-06	0	0	0	-0.13	0	0.305	0	0	0
2.903	-0.47365	81.672333	-0.851698	0.204947	0	-0.314308	1.00E-06	0.770353	1.00E-06	0	0	0	-0.13	0	0.305	0	0	0
2.904	-0.47365	79.597122	-1.400253	0.204352	0	-0.314308	1.00E-06	0.770353	1.00E-06	0	0	0	-0.13	0	0.305	0	0	0
2.905	-0.002937	79.597122	-0.851698	0.203913	0	-0.314308	1.00E-06	0.734308	1.00E-06	0	0	0	-0.13	0	0.305	0	0	0
2.906	-0.002937	79.597122	-1.086649	0.203913	0	-0.312225	1.00E-06	0.734308	1.00E-06	0	0	0	-0.13	0	0.305	0	0	0
2.907	0.153486	77.179062	-1.086649	0.20118	0	-0.312225	1.00E-06	0.745369	1.00E-06	0	0	0	-0.13	0	0.305	0	0	0
2.908	-0.237932	77.179062	-1.321962	0.20118	0	-0.312225	1.00E-06	0.76188	1.00E-06	0	0	0	-0.13	0	0.305	0	0	0
2.909	0.384155	77.179062	-1.713495	0.20239	0	-0.312622	1.00E-06	0.76188	1.00E-06	0	0	0	-0.13	0	0.305	0	0	0
2.91	0.383432	75.296753	-1.713495	0.2051	0	-0.310098	1.00E-06	0.804419	1.00E-06	0	0	0	-0.13	0	0.305	0	0	0
2.911	0.383432	75.296753	-1.791786	0.20437	0	-0.309726	1.00E-06	0.804419	1.00E-06	0	0	0	-0.13	0	0.305	0	0	0
2.912	0.383432	75.296753	-1.791786	0.20437	0	-0.308391	1.00E-06	0.818054	1.00E-06	0	0	0	-0.13	0	0.305	0	0	0
2.913	0.931274	75.13089	-1.791786	0.20437	0	-0.308391	1.00E-06	0.694177	1.00E-06	0	0	0	-0.13	0	0.305	0	0	0
2.914	0.931274	74.434647	-2.105188	0.206997	0	-0.308391	1.00E-06	0.694177	1.00E-06	0	0	0	-0.13	0	0.305	0	0	0
2.915	0.543465	73.572937	-2.41839	0.206997	0	-0.305939	1.00E-06	0.688997	1.00E-06	0	0	0	-0.13	0	0.305	0	0	0
2.916	0.543465	73.572937	-2.418591	0.206006	0	-0.306264	2.00E-06	0.688997	0	0	0	0	-0.13	0	0.305	0	0	0
2.917	1.089863	72.542679	-2.575052	0.206006	0	-0.306264	2.00E-06	0.688997	0	0	0	0	-0.13	0	0.305	0	0	0
2.918	1.243401	72.542679	-2.575092	0.206006	0	-0.306926	2.00E-06	0.717977	0	0	0	0	-0.13	0	0.305	0	0	0
2.919	1.089863	72.36834	-3.123365	0.20376	0	-0.306926	2.00E-06	0.670039	1.00E-06	0	0	0	-0.13	0	0.305	0	0	0
2.92	1.322695	72.019295	-3.123365	0.20376	0	-0.306075	1.00E-06	0.670039	1.00E-06	0	0	0	-0.13	0	0.305	0	0	0
2.921	1.322695	70.658066	-3.123365	0.204672	0	-0.302049	1.00E-06	0.649321	1.00E-06	0	0	0	-0.13	0	0.305	0	0	0
2.922	1.713394	70.658066	-3.123365	0.205228	0	-0.301436	1.00E-06	0.604059	1.00E-06	0	0	0	-0.13	0	0.305	0	0	0
2.923	1.713394	70.658066	-3.515219	0.205228	0	-0.301436	2.00E-06	0.598777	1.00E-06	0	0	0	-0.13	0	0.305	0	0	0
2.924	1.713394	70.462112	-3.671921	0.205228	0	-0.307004	1.00E-06	0.598777	0.00E+00	0	0	0	-0.13	0	0.305	0	0	0
2.925	2.181942	70.462112	-3.671921	0.206028	0	-0.307004	1.00E-06	0.623317	1.00E-06	0	0	0	-0.13	0	0.305	0	0	0
2.926	2.181942	69.434151	-3.436686	0.206028	0	-0.303486	1.00E-06	0.623317	1.00E-06	0	0	0	-0.13	0	0.305	0	0	0
2.927	2.181942	67.889725	-3.358315	0.207069	0	-0.303299	1.00E-06	0.616654	1.00E-06	0	0	0	-0.13	0	0.305	0	0	0
2.928	2.807636	67.889725	-3.358398	0.206979	0	-0.303486	1.00E-06	0.616654	1.00E-06	0	0	0	-0.13	0	0.305	0	0	0
2.929	2.807636	68.221832	-3.201612	0.207069	0	-0.307241	2.00E-06	0.546845	1.00E-06	0	0	0	-0.13	0	0.305	0	0	0
2.93	2.416216	68.221832	-3.123123	0.206979	0	-0.307241	2.00E-06	0.600983	1.00E-06	0	0	0	-0.13	0	0.305	0	0	0
2.931	2.338366	67.711899	-2.809921	0.205904	0	-0.306588	0	0.600983	1.00E-06	0	0	0	-0.13	0	0.305	0	0	0
2.932	2.416216	67.711136	-2.731472	0.205229	0	-0.305614	0	0.600983	1.00E-06	0	0	0	-0.13	0	0.305	0	0	0
2.933	2.729786	67.184235	-2.496359	0.205229	0	-0.306511	0.00E+00	0.61952	1.00E-06	0	0	0	-0.13	0	0.305	0	0	0
2.934	2.88693	65.64093	-1.948166	0.207231	0	-0.306511	0.00E+00	0.560225	0.00E+00	0	0	0	-0.13	0	0.305	0	0	0
2.935	3.043352	65.64093	-1.869715	0.207231	0	-0.310329	0	0.61952	0	0	0	0	-0.13	0	0.305	0	0	0
2.936	3.117596	65.473198	-1.399406	0.207802	0	-0.310329	0	0.621143	0	0	0	0	-0.13	0	0.305	0	0	0
2.937	3.277628	64.930435	-0.772804	0.202883	0	-0.310299	1.00E-06	0.621143	0	0	0	0	-0.13	0	0.305	0	0	0
2.938	3.589754	64.589462	-0.380869	0.201724	0	-0.309975	2.00E-06	0.549137	1.00E-06	0	0	0	-0.13	0	0.305	0	0	0
2.939	3.277628	62.530888	-0.224289	0.201724	0	-0.309975	2.00E-06	0.549137	1.00E-06	0	0	0	-0.13	0	0.305	0	0	0
2.94	3.666882	60.968292	-0.145918	0.201234	0	-0.309975	1.00E-06	0.55501	1.00E-06	0	0	0	-0.13	0	0.305	0	0	0
2.941	3.746899	60.968292	0.089073	0.201234	0	-0.308572	1.00E-06	0.55501	1.00E-06	0	0	0	-0.13	0	0.305	0	0	0
2.942	3.824749	60.968292	0.71608	0.20116	0	-0.308572	1.00E-06	0.55501	1.00E-06	0	0	0	-0.13	0	0.305	0	0	0
2.943	4.056137	60.631554	0.87278	0.201057	0	-0.306332	1.00E-06	0.493177	1.00E-06	0	0	0	-0.13	0	0.305	0	0	0
2.944	4.059025	59.07518	1.421213	0.200772	0	-0.305169	1.00E-06	0.577593	0	0	0	0	-0.13	0	0.305	0	0	0
2.945	4.214725	59.07518	1.264513	0.200023	0	-0.305169	1.00E-06	0.56205	0	0	0	0	-0.13	0	0.305	0	0	0
2.946	4.214725	59.07518	1.577797	0.199836	0	-0.305169	0.00E+00	0.577593	0.00E+00	0	0	0	-0.13	0	0.305	0	0	0
2.947	4.214725	57.339043	1.656204	0.198629	0	-0.303771	2.00E-06	0.570631	0	0	0	0	-0.13	0	0.305	0	0	0
2.948	4.528296	57.339043	2.047899	0.198629	0	-0.303771	0.00E+00	0.586409	0	0	0	0	-0.13	0	0.305	0	0	0
2.949	4.528296	57.008087	2.04814	0.200333	0	-0.30341	0	0.570631	0	0	0	0	-0.13	0	0.305	0	0	0
2.95	4.838976	55.979378	2.439835	0.201066	0	-0.300997	0	0.586409	0.00E+00	0	0	0	-0.13	0	0.305	0	0	0
2.951	4.603981	54.428387	2.518164	0.20189	0	-0.299627	1.00E-06	0.609421	0	0	0	0	-0.13	0	0.305	0	0	0
2.952	4.603981	54.428387	2.596657	0.20189	0	-0.297866	1.00E-06	0.623767	0	0	0	0	-0.13	0	0.305	0	0	0
2.953	4.603981	54.075462	2.596657	0.202046	0	-0.297866	1.00E-06	0.623767	0.00E+00	0	0	0	-0.13	0	0.305	0	0	0
2.954	4.526131	53.044403	3.30167	0.204166	0	-0.300792	2.00E-06	0.56093	1.00E-06	0	0	0	-0.13	0	0.305	0	0	0
2.955	4.680387	53.044403	3.301952	0.204166	0	-0.300792	2.00E-06	0.56093	1.00E-06	0	0	0	-0.13	0	0.305	0	0	0
2.956	4.602537	53.042843	3.301952	0.204379	0	-0.298081	2.00E-06	0.561275	1.00E-06	0	0	0	-0.13	0	0.305	0	0	0
2.957	4.602537	52.350891	3.615313	0.203193	0	-0.298081	1.00E-06	0.641552	1.00E-06	0	0	0	-0.13	0	0.305	0	0	0
2.958	4.602537	50.467384	3.928514	0.203193	0	-0.298081	1.00E-06	0.579842	1.00E-06	0	0	0	-0.13	0	0.305	0	0	0
2.959	4.68111	50.467384	3.928759	0.203193	0	-0.298465	1.00E-06	0.579842	1.00E-06	0	0	0	-0.13	0	0.305	0	0	0
2.96	4.68111	50.975388	3.928759	0.201684	0	-0.298969	1.00E-06	0.494418	0	0	0	0	-0.13	0	0.305	0	0	0
2.961	4.44467	50.975388	3.928797	0.201684	0	-0.304637	1.00E-06	0.494418	0	0	0	0	-0.13	0	0.305	0	0	0
2.962	4.443228	49.585236	3.928797	0.201684	0	-0.304637	1.00E-06	0.536241	0.00E+00	0	0	0	-0.13	0	0.305	0	0	0
2.963	4.443228	47.695198	4.085701	0.203716	0	-0.301776	1.00E-06	0.536241	0	0	0	0	-0.13	0	0.305	0	0	0
2.964	4.443228	47.182945	4.163788	0.203716	0	-0.301085	0	0.52115	0	0	0	0	-0.13	0	0.305	0	0	0
2.965	4.287525	47.182945	4.790958	0.203716	0	-0.30177	0	0.448517	0	0	0	0	-0.13	0	0.305	0	0	0
2.966	4.287525	47.181801	4.790958	0.205879	0	-0.30177	0	0.429256	0.00E+00	0	0	0	-0.13	0	0.305	0	0	0
2.967	4.287525	46.997021	4.790796	0.206212	0	-0.307706	1.00E-06	0.448517	0	0	0	0	-0.13	0	0.305	0	0	0
2.968	4.44467	46.997021	4.790796	0.206212	0	-0.30964	1.00E-06	0.405246	0	0	0	0	-0.13	0	0.305	0	0	0
2.969	4.44467	46.997021	4.790915	0.205784	0	-0.307706	1.00E-06	0.447378	0.00E+00	0	0	0	-0.13	0	0.305	0	0	0
2.97	4.523243	45.442181	4.790958	0.203161	0	-0.308538	1.00E-06	0.365093	0	0	0	0	-0.13	0	0.305	0	0	0
2.971	4.366098	45.442181	4.947577	0.203161	0	-0.305689	1.00E-06	0.37353	0	0	0	0	-0.13	0	0.305	0	0	0
2.972	4.603981	45.795498	5.104399	0.200225	0	-0.308538	1.00E-06	0.326937	0	0	0	0	-0.13	0	0.305	0	0	0
2.973	4.678946	45.795498	5.574421	0.20537	0	-0.309478	2.00E-06	0.37353	0.00E+00	0	0	0	-0.13	0	0.305	0	0	0
2.974	4.678946	45.096176	5.574421	0.201178	0	-0.311131	2.00E-06	0.242496	0	0	0	0	-0.13	0	0.305	0	0	0
2.975	4.209675	45.091934	5.574421	0.201178	0	-0.311131	1.00E-06	0.412767	0	0	0	0	-0.13	0	0.305	0	0	0
2.976	4.209675	44.209785	5.731205	0.201178	0	-0.311131	1.00E-06	0.461179	0	0	0	0	-0.13	0	0.305	0	0	0
2.977	4.36754	42.508385	6.122816	0.201835	0	-0.31645	1.00E-06	0.461179	0	0	0	0	-0.13	0	0.305	0	0	0
2.978	4.831762	41.810181	6.122936	0.201835	0	-0.308604	1.00E-06	0.461179	0	0	0	0	-0.13	0	0.305	0	0	0
2.979	4.831762	41.471153	6.357969	0.200512	0	-0.308604	0.00E+00	0.577107	0.00E+00	0	0	0	-0.13	0	0.305	0	0	0
2.98	4.832481	41.471153	6.357969	0.200512	0	-0.308604	1.00E-06	0.577107	0	0	0	0	-0.13	0	0.305	0	0	0
2.981	4.832481	41.651276	6.514711	0.203481	0	-0.30889	0.00E+00	0.50267	0	0	0	0	-0.13	0	0.305	0	0	0
2.982	4.676781	41.651276	6.279558	0.203481	0	-0.30889	0	0.50267	0	0	0	0	-0.13	0	0.305	0	0	0
2.983	4.283918	39.915535	6.828033	0.202392	0	-0.30889	0	0.526093	0	0	0	0	-0.13	0	0.305	0	0	0
2.984	4.283918	39.063477	6.828033	0.200401	0	-0.308595	1.00E-06	0.526093	1.00E-06	0	0	0	-0.13	0	0.305	0	0	0
2.985	4.520357	39.063477	7.533291	0.198789	0	-0.306641	1.00E-06	0.491211	1.00E-06	0	0	0	-0.13	0	0.305	0	0	0
2.986	4.520357	38.87833	7.533291	0.198789	0	-0.306641	1.00E-06	0.449364	0	0	0	0	-0.13	0	0.305	0	0	0
2.987	4.520357	37.503227	7.690109	0.198197	0	-0.306641	1.00E-06	0.491211	0	0	0	0	-0.13	0	0.305	0	0	0
2.988	5.066034	37.503227	7.376749	0.200328	0	-0.304551	0	0.498944	0	0	0	0	-0.13	0	0.305	0	0	0
2.989	5.066034	36.637657	7.925182	0.19967	0	-0.304551	0	0.498944	0	0	0	0	-0.13	0	0.305	0	0	0
2.99	5.066034	36.637657	7.611702	0.19967	0	-0.304551	0.00E+00	0.453718	0	0	0	0	-0.13	0	0.305	0	0	0
2.991	4.988907	36.305946	7.611702	0.19931	0	-0.301178	0	0.453718	0	0	0	0	-0.13	0	0.305	0	0	0
2.992	5.461784	36.305946	7.611702	0.19931	0	-0.301178	0	0.447825	0	0	0	0	-0.13	0	0.305	0	0	0
2.993	5.381769	36.305946	7.61174	0.200039	0	-0.304659	0	0.445195	0	0	0	0	-0.13	0	0.305	0	0	0
2.994	5.381769	36.820095	7.846693	0.20214	0	-0.308769	0	0.428323	0	0	0	0	-0.13	0	0.305	0	0	0
2.995	5.067478	34.926201	7.690233	0.20214	0	-0.308769	0	0.402238	0	0	0	0	-0.13	0	0.305	0	0	0
2.996	5.067478	35.774014	7.846693	0.20214	0	-0.310901	0	0.428323	0	0	0	0	-0.13	0	0.305	0	0	0
2.997	5.614599	35.774014	8.081844	0.202242	0	-0.310901	0.00E+00	0.402238	0	0	0	0	-0.13	0	0.305	0	0	0
2.998	5.617487	35.774014	8.081844	0.202242	0	-0.312312	1.00E-06	0.448422	0	0	0	0	-0.13	0	0.305	0	0	0
2.999	5.617487	35.600456	7.846813	0.198298	0	-0.308781	1.00E-06	0.432294	0	0	0	0	-0.13	0	0.305	0	0	0
3	5.305361	35.600456	7.846813	0.198298	0	-0.308781	1.00E-06	0.432294	0	0	0	0	-0.13	0	0.305	0	0	0
3.001	5.305361	36.468311	7.76832	0.199595	0	-0.308781	0	0.432294	0.00E+00	0	0	0	-0.13	0	0.305	0	0	0
3.002	5.305361	36.468311	7.76832	0.202203	0	-0.307654	0	0.480847	0	0	0	0	-0.13	0	0.305	0	0	0
3.003	5.148216	36.468311	7.76832	0.202203	0	-0.31083	0	0.480847	0	0	0	0	-0.13	0	0.305	0	0	0
3.004	5.148216	36.467922	7.76824	0.20311	0	-0.31083	0	0.476214	0	0	0	0	-0.13	0	0.305	0	0	0
